<svg width="764" height="70" viewBox="0 0 764 70" fill="none" xmlns="http://www.w3.org/2000/svg">
<g clip-path="url(#clip0)">
<path d="M122.2 -0.8V70H100V-0.8H122.2ZM171.727 13.2C178.193 13.2 183.227 15.3667 186.827 19.7C190.493 24.0333 192.327 29.9 192.327 37.3V70H170.227V40.1C170.227 37.4333 169.493 35.3333 168.027 33.8C166.627 32.2 164.727 31.4 162.327 31.4C159.86 31.4 157.927 32.2 156.527 33.8C155.127 35.3333 154.427 37.4333 154.427 40.1V70H132.227V13.6H154.427V22.2C156.16 19.5333 158.46 17.3667 161.327 15.7C164.26 14.0333 167.727 13.2 171.727 13.2ZM230.553 48.9L239.553 13.6H263.153L244.353 70H216.653L197.853 13.6H221.453L230.553 48.9ZM323.643 41.3C323.643 42.8333 323.543 44.3 323.343 45.7H287.643C287.976 50.5667 290.01 53 293.743 53C296.143 53 297.876 51.9 298.943 49.7H322.443C321.643 53.7 319.943 57.3 317.343 60.5C314.81 63.6333 311.576 66.1333 307.643 68C303.776 69.8 299.51 70.7 294.843 70.7C289.243 70.7 284.243 69.5333 279.843 67.2C275.51 64.8667 272.11 61.5333 269.643 57.2C267.243 52.8 266.043 47.6667 266.043 41.8C266.043 35.9333 267.243 30.8333 269.643 26.5C272.11 22.1 275.51 18.7333 279.843 16.4C284.243 14.0667 289.243 12.9 294.843 12.9C300.443 12.9 305.41 14.0667 309.743 16.4C314.143 18.6667 317.543 21.9333 319.943 26.2C322.41 30.4667 323.643 35.5 323.643 41.3ZM301.143 36C301.143 34.1333 300.543 32.7333 299.343 31.8C298.143 30.8 296.643 30.3 294.843 30.3C290.91 30.3 288.61 32.2 287.943 36H301.143ZM355.764 70.7C350.431 70.7 345.697 69.8333 341.564 68.1C337.497 66.3667 334.264 63.9667 331.864 60.9C329.464 57.8333 328.097 54.3667 327.764 50.5H349.064C349.331 52.1667 350.031 53.4 351.164 54.2C352.364 55 353.864 55.4 355.664 55.4C356.797 55.4 357.697 55.1667 358.364 54.7C359.031 54.1667 359.364 53.5333 359.364 52.8C359.364 51.5333 358.664 50.6333 357.264 50.1C355.864 49.5667 353.497 48.9667 350.164 48.3C346.097 47.5 342.731 46.6333 340.064 45.7C337.464 44.7667 335.164 43.1667 333.164 40.9C331.231 38.6333 330.264 35.5 330.264 31.5C330.264 28.0333 331.164 24.9 332.964 22.1C334.831 19.2333 337.564 17 341.164 15.4C344.764 13.7333 349.131 12.9 354.264 12.9C361.864 12.9 367.797 14.7667 372.064 18.5C376.397 22.2333 378.997 27.1 379.864 33.1H360.164C359.831 31.5667 359.131 30.4 358.064 29.6C356.997 28.7333 355.564 28.3 353.764 28.3C352.631 28.3 351.764 28.5333 351.164 29C350.564 29.4 350.264 30.0333 350.264 30.9C350.264 32.0333 350.964 32.9 352.364 33.5C353.764 34.0333 355.997 34.6 359.064 35.2C363.131 36 366.564 36.9 369.364 37.9C372.164 38.9 374.597 40.6333 376.664 43.1C378.731 45.5 379.764 48.8333 379.764 53.1C379.764 56.4333 378.797 59.4333 376.864 62.1C374.931 64.7667 372.131 66.8667 368.464 68.4C364.864 69.9333 360.631 70.7 355.764 70.7ZM423.674 51.1V70H415.274C399.808 70 392.074 62.3 392.074 46.9V32.1H385.074V13.6H392.074V-4.76837e-06H414.274V13.6H423.474V32.1H414.274V47.3C414.274 48.6333 414.574 49.6 415.174 50.2C415.841 50.8 416.908 51.1 418.374 51.1H423.674ZM507.429 13.2C514.629 13.2 520.196 15.3667 524.129 19.7C528.129 24.0333 530.129 29.9 530.129 37.3V70H508.029V40.1C508.029 37.7 507.296 35.8333 505.829 34.5C504.429 33.1 502.529 32.4 500.129 32.4C497.662 32.4 495.729 33.1 494.329 34.5C492.929 35.8333 492.229 37.7 492.229 40.1V70H470.129V40.1C470.129 37.7 469.396 35.8333 467.929 34.5C466.529 33.1 464.629 32.4 462.229 32.4C459.762 32.4 457.829 33.1 456.429 34.5C455.029 35.8333 454.329 37.7 454.329 40.1V70H432.129V13.6H454.329V21.2C455.929 18.8 458.096 16.8667 460.829 15.4C463.629 13.9333 466.896 13.2 470.629 13.2C474.696 13.2 478.296 14.1 481.429 15.9C484.562 17.6333 487.062 20.1 488.929 23.3C490.996 20.3667 493.629 17.9667 496.829 16.1C500.029 14.1667 503.562 13.2 507.429 13.2ZM594.346 41.3C594.346 42.8333 594.246 44.3 594.046 45.7H558.346C558.679 50.5667 560.713 53 564.446 53C566.846 53 568.579 51.9 569.646 49.7H593.146C592.346 53.7 590.646 57.3 588.046 60.5C585.513 63.6333 582.279 66.1333 578.346 68C574.479 69.8 570.213 70.7 565.546 70.7C559.946 70.7 554.946 69.5333 550.546 67.2C546.213 64.8667 542.813 61.5333 540.346 57.2C537.946 52.8 536.746 47.6667 536.746 41.8C536.746 35.9333 537.946 30.8333 540.346 26.5C542.813 22.1 546.213 18.7333 550.546 16.4C554.946 14.0667 559.946 12.9 565.546 12.9C571.146 12.9 576.113 14.0667 580.446 16.4C584.846 18.6667 588.246 21.9333 590.646 26.2C593.113 30.4667 594.346 35.5 594.346 41.3ZM571.846 36C571.846 34.1333 571.246 32.7333 570.046 31.8C568.846 30.8 567.346 30.3 565.546 30.3C561.613 30.3 559.313 32.2 558.646 36H571.846ZM640.867 13.2C647.334 13.2 652.367 15.3667 655.967 19.7C659.634 24.0333 661.467 29.9 661.467 37.3V70H639.367V40.1C639.367 37.4333 638.634 35.3333 637.167 33.8C635.767 32.2 633.867 31.4 631.467 31.4C629.001 31.4 627.067 32.2 625.667 33.8C624.267 35.3333 623.567 37.4333 623.567 40.1V70H601.367V13.6H623.567V22.2C625.301 19.5333 627.601 17.3667 630.467 15.7C633.401 14.0333 636.867 13.2 640.867 13.2ZM706.194 51.1V70H697.794C682.327 70 674.594 62.3 674.594 46.9V32.1H667.594V13.6H674.594V-4.76837e-06H696.794V13.6H705.994V32.1H696.794V47.3C696.794 48.6333 697.094 49.6 697.694 50.2C698.36 50.8 699.427 51.1 700.894 51.1H706.194ZM739.748 70.7C734.415 70.7 729.682 69.8333 725.548 68.1C721.482 66.3667 718.248 63.9667 715.848 60.9C713.448 57.8333 712.082 54.3667 711.748 50.5H733.048C733.315 52.1667 734.015 53.4 735.148 54.2C736.348 55 737.848 55.4 739.648 55.4C740.782 55.4 741.682 55.1667 742.348 54.7C743.015 54.1667 743.348 53.5333 743.348 52.8C743.348 51.5333 742.648 50.6333 741.248 50.1C739.848 49.5667 737.482 48.9667 734.148 48.3C730.082 47.5 726.715 46.6333 724.048 45.7C721.448 44.7667 719.148 43.1667 717.148 40.9C715.215 38.6333 714.248 35.5 714.248 31.5C714.248 28.0333 715.148 24.9 716.948 22.1C718.815 19.2333 721.548 17 725.148 15.4C728.748 13.7333 733.115 12.9 738.248 12.9C745.848 12.9 751.782 14.7667 756.048 18.5C760.382 22.2333 762.982 27.1 763.848 33.1H744.148C743.815 31.5667 743.115 30.4 742.048 29.6C740.982 28.7333 739.548 28.3 737.748 28.3C736.615 28.3 735.748 28.5333 735.148 29C734.548 29.4 734.248 30.0333 734.248 30.9C734.248 32.0333 734.948 32.9 736.348 33.5C737.748 34.0333 739.982 34.6 743.048 35.2C747.115 36 750.548 36.9 753.348 37.9C756.148 38.9 758.582 40.6333 760.648 43.1C762.715 45.5 763.748 48.8333 763.748 53.1C763.748 56.4333 762.782 59.4333 760.848 62.1C758.915 64.7667 756.115 66.8667 752.448 68.4C748.848 69.9333 744.615 70.7 739.748 70.7Z" fill="#74E24A"/>
<path d="M71.05 70H84.325C86.5375 70 88.75 67.8 88.75 65.6V36.4C88.75 34.2 86.5375 32 84.325 32H71.05C68.8375 32 66.625 34.2 66.625 36.4V65.6C66.625 67.8 68.8375 70 71.05 70ZM4.675 70H17.95C20.1625 70 22.375 67.8 22.375 65.6V58.4C22.375 56.2 20.1625 54 17.95 54H4.675C2.4625 54 0.25 56.2 0.25 58.4V65.6C0.25 67.8 2.4625 70 4.675 70ZM37.8625 70H51.1375C53.35 70 55.5625 67.8 55.5625 65.6V14.4C55.5625 12.2 53.35 10 51.1375 10H37.8625C35.65 10 33.4375 12.2 33.4375 14.4V65.6C33.4375 67.8 35.65 70 37.8625 70Z" fill="#DF78D6"/>
</g>
<defs>
<clipPath id="clip0">
<rect width="764" height="70" fill="white"/>
</clipPath>
</defs>
</svg>
